<svg version="1.2" xmlns="http://www.w3.org/2000/svg" viewBox="0 0 568 568" width="568" height="568">
	<title>12262915_4951124-ai</title>
	<defs>
		<linearGradient id="g1" x1="39" y1="39" x2="528.6" y2="39" gradientUnits="userSpaceOnUse">
			<stop offset=".053" stop-color="#c0c1ff"/>
			<stop offset=".4" stop-color="#b37fff"/>
			<stop offset=".908" stop-color="#b395ff"/>
		</linearGradient>
		<linearGradient id="g2" x1="296" y1="249.5" x2="315.9" y2="367.8" gradientUnits="userSpaceOnUse">
			<stop offset=".053" stop-color="#c0c1ff"/>
			<stop offset=".4" stop-color="#b37fff"/>
			<stop offset=".908" stop-color="#b395ff"/>
		</linearGradient>
	</defs>
	<style>
		tspan { white-space:pre } 
		.s0 { fill: #341759 } 
		.s1 { fill: #6227a0 } 
		.s2 { fill: url(#g1) } 
		.s3 { fill: #5b0e9e } 
		.s4 { fill: url(#g2) } 
		.t5 { font-size: 27px;text-transform: uppercase;fill: #fff9eb;font-weight: 500;font-family: "Montserrat-Medium", "Montserrat" } 
		.t6 { font-size: 16px;text-transform: uppercase;fill: #fff9eb;font-weight: 275;font-family: "Montserrat-ExtraLight", "Montserrat" } 
	</style>
	<g id="BACKGROUND">
		<path id="&lt;Path&gt;" class="s0" d="m789 870h-1000v-1000h1000z"/>
	</g>
	<g id="OBJECTS">
		<g id="&lt;Group&gt;">
			<g id="&lt;Group&gt;">
				<path id="&lt;Compound Path&gt;" fill-rule="evenodd" class="s1" d="m500.5 368.7c0.4 32.4-11.7 64.9-36.3 89.5-23.5 23.5-54.2 35.6-85.1 36.3-22.6 23.1-54.1 37.5-88.9 37.5-33.2 0-63.4-13.1-85.7-34.4-31.8-0.1-63.5-12.2-87.7-36.4-24.6-24.6-36.7-57-36.4-89.3-22.4-22.5-36.2-53.5-36.2-87.7 0-34.8 14.4-66.3 37.5-88.9 1.2-30.3 13.2-60.2 36.3-83.3 24.2-24.2 55.9-36.3 87.7-36.3 22.2-20.6 51.9-33.3 84.5-33.3 34.2 0 65.2 13.9 87.7 36.3 30.9 0.7 61.5 12.8 85.1 36.3 23 23.1 35.1 53 36.2 83.3 21.4 22.4 34.6 52.6 34.6 85.9 0 32.6-12.7 62.3-33.3 84.5zm23.6-84.5c0-27-9.4-51.9-25.2-71.5-2 26.4-12.4 52.3-31.2 73.3 18.2 19.7 28.8 43.9 31.9 68.9 15.3-19.5 24.5-44 24.5-70.7zm-119.2 124.3c-28.9-1-55.3-12-76-29.5-1.2 27.1-11.3 54-30.2 75.7 21.5 19.8 48.8 29.8 76.3 30.1 18.4-20.2 29.7-46.9 29.9-76.3zm-119.7 46.5c-20.7-22.3-31.7-50.3-33.1-78.7-20.5 18.6-47.2 30.5-76.5 32.1 0.2 30.9 12.7 58.9 32.8 79.4 27.8-0.9 55.4-11.8 76.8-32.8zm-109.4-294.9c28.8 1.6 55.1 13.2 75.5 31.3 2.5-27 13.8-53.4 33.8-74.4-21.1-20.2-48.2-30.7-75.5-31.6-19.5 19.3-32.1 45.5-33.8 74.7zm123-42.9c18.3 20.6 28.6 45.8 31 71.6 20.4-17.1 46.5-27.8 74.9-28.9-1.6-27.6-13.1-52.6-30.9-71.5-26.9 0.2-53.6 9.9-75 28.8zm190.8 85.2c-19.5-19.2-45.9-31.4-75-32.8-0.7 29.2-11.4 55.8-28.8 76.7 27.1 2.1 53.7 13 75 32.8 19.4-21.8 29-49.3 28.8-76.7zm-85 196.4c-2.1-27.8-14.2-52.8-32.7-71.6-20.8-0.5-41.4-6.1-59.9-17 10.1 17.2 15.7 36.3 16.8 55.5 19.7 19.5 46.3 31.9 75.8 33.1zm-152.5-36.2c1.2-19.2 6.8-38.3 16.9-55.4-17.7 10.4-37.4 16-57.3 16.9-20.2 19-33.5 45.3-35.8 74.6 30-1.9 56.9-15.4 76.2-36.1zm-121.9-76.5c22.1 19.4 49.9 28.9 77.6 28.4 14.5-12.8 31.9-22.3 51.2-27.3-19.9-5.2-37.8-15.1-52.5-28.5-27.2-0.5-54.4 8.7-76.3 27.4zm323.9-0.1c-21.7-20-49.3-30.1-76.9-30.4-15.3 15-34.4 26.1-55.7 31.6 20.8 5.4 39.4 16 54.5 30.4 28.1-0.2 56.2-10.8 78.1-31.6zm-49.2-116.4c-28.9 1.1-55.1 13-74.7 31.7-0.2 21.4-5.9 42.7-17 61.7 18.5-10.9 39.1-16.5 59.9-17 19.1-20 31.1-46.8 31.8-76.4zm-113-45.6c-20.4 21.4-30.9 48.9-31.5 76.5 13.4 14.7 23.4 32.6 28.6 52.4 5.5-21.3 16.6-40.4 31.5-55.6-0.6-26.3-10.1-52.4-28.6-73.3zm-116.3 45.7c0.8 31.1 14 59.2 34.9 79.4 19.9 0.9 39.6 6.5 57.3 16.9-11.2-19-16.9-40.3-17.1-61.7-19.3-19.9-45.7-32.8-75.1-34.6zm-9.7-0.1c-28.7 0.6-54.8 11.9-74.6 29.9-0.1 28.8 10.5 57.6 31.9 79.9 21.3-18.6 47.4-28.6 74-30.2-18.9-21.3-30.6-49.1-31.3-79.6zm-42.8 123.1c-20.7 20.9-31.6 47.9-32.9 75.2 20 18.7 46.7 30.4 76 31 2-28.7 13.8-54.8 32-74.9-27-1.6-53.6-12.1-75.1-31.3zm168.7 155.2c19.1-22.3 28.3-50.3 27.5-78-14.3-15.1-25-33.7-30.3-54.4-5 19.2-14.5 36.7-27.3 51.1-1 29.1 9.1 58.4 30.1 81.3zm122.5-49.1c29.8-1.3 56.7-14 76.4-33.8-1.2-26-11.1-51.7-29.8-72.1-21.5 20.5-48.5 31.8-76.1 34 16.8 19.6 27.6 44.6 29.5 71.9zm41.8-276.9c-19.2-19.3-43.7-30.2-68.9-32.9 15.8 19.7 25.8 44.2 27.2 71 28.2 1.1 54 11.7 74.3 28.6-3-24.4-13.9-48-32.6-66.7zm-236.4-45.5c26.3 3 51.9 14.2 72.4 33.9 20.6-18.5 46-28.9 72-31.1-20-16.9-45.7-27.1-73.9-27.1-26.5 0-51 9.1-70.5 24.3zm-127.6 109.8c20.5-16 46.1-25.8 74-26.3 1.5-28.2 12.5-54 29.9-74.1-26 2.2-51.3 13.2-71.2 33-18.8 18.9-29.7 42.8-32.7 67.4zm-10.8 172.3c3.1-26.5 14.7-52.1 34.8-72.5-20.7-21.7-32.1-49-34.1-76.9-17.5 20.1-28.1 46.4-28.1 75.1 0 28.4 10.3 54.3 27.4 74.3zm42.3 95.9c19.9 19.8 45.3 30.9 71.4 33.1-18-21.4-28.9-49-29.1-79-28.6-0.6-54.8-10.9-75.5-27.7 1.7 26.8 12.8 53.1 33.2 73.6zm166.6 67.9c28.8 0 55.1-10.7 75.3-28.2-26.6-2.3-52.5-13.1-73.4-32.3-20.8 20.4-46.9 32.1-73.9 35 19.7 15.9 44.8 25.5 72 25.5zm200.4-143.9c-20.6 17.7-47 28.9-76 30.1-0.2 28.5-10.1 54.8-26.5 75.7 25.3-2.6 49.9-13.5 69.2-32.9 20.3-20.3 31.4-46.3 33.3-72.9z"/>
				<path id="&lt;Compound Path&gt;" fill-rule="evenodd" class="s2" d="m495.4 365.3c0.4 32.4-11.7 64.8-36.4 89.5-23.5 23.5-54.1 35.6-85 36.3-22.6 23.1-54.1 37.5-88.9 37.5-33.2 0-63.4-13.1-85.7-34.4-31.8-0.1-63.6-12.2-87.7-36.4-24.6-24.6-36.7-57-36.4-89.3-22.4-22.5-36.3-53.5-36.3-87.7 0-34.8 14.5-66.3 37.6-88.9 1.1-30.3 13.2-60.2 36.3-83.3 24.2-24.2 55.9-36.3 87.7-36.4 22.2-20.6 51.9-33.2 84.5-33.2 34.2 0 65.2 13.9 87.7 36.3 30.9 0.7 61.5 12.8 85 36.3 23.1 23.1 35.2 53 36.3 83.3 21.4 22.3 34.5 52.6 34.5 85.9 0 32.6-12.6 62.3-33.2 84.5zm23.5-84.5c0-27-9.4-51.9-25.1-71.6-2 26.5-12.4 52.4-31.3 73.3 18.2 19.8 28.9 44 32 69 15.3-19.5 24.4-44 24.4-70.7zm-119.1 124.3c-28.9-1-55.4-12-76-29.6-1.3 27.2-11.3 54-30.3 75.8 21.6 19.8 48.9 29.8 76.3 30.1 18.5-20.2 29.8-46.9 30-76.3zm-119.7 46.5c-20.7-22.3-31.8-50.3-33.2-78.7-20.4 18.6-47.1 30.4-76.5 32.1 0.2 30.9 12.7 58.9 32.8 79.4 27.9-0.9 55.5-11.8 76.9-32.8zm-109.5-295c28.9 1.7 55.2 13.3 75.5 31.4 2.5-27 13.8-53.4 33.9-74.4-21.2-20.2-48.2-30.8-75.6-31.6-19.4 19.3-32.1 45.5-33.8 74.6zm123.1-42.8c18.3 20.6 28.6 45.8 30.9 71.5 20.5-17.1 46.5-27.7 75-28.8-1.6-27.6-13.1-52.6-30.9-71.6-26.9 0.3-53.7 9.9-75 28.9zm190.8 85.2c-19.6-19.2-45.9-31.5-75.1-32.8-0.6 29.1-11.3 55.8-28.7 76.7 27.1 2.1 53.7 13 75 32.8 19.3-21.8 28.9-49.3 28.8-76.7zm-85 196.4c-2.2-27.8-14.3-52.8-32.7-71.6-20.8-0.5-41.5-6.1-59.9-17 10 17.2 15.6 36.2 16.8 55.5 19.7 19.5 46.3 31.9 75.8 33.1zm-152.5-36.2c1.2-19.2 6.8-38.3 16.8-55.4-17.6 10.4-37.3 16-57.2 16.9-20.2 19-33.5 45.2-35.8 74.5 30-1.9 56.9-15.3 76.2-36zm-121.9-76.5c22.1 19.4 49.9 28.9 77.6 28.4 14.5-12.8 31.9-22.3 51.1-27.3-19.8-5.2-37.7-15.1-52.4-28.6-27.2-0.4-54.5 8.8-76.3 27.5zm323.8-0.1c-21.6-20-49.2-30.1-76.8-30.4-15.3 15-34.4 26.1-55.7 31.6 20.7 5.4 39.4 16 54.5 30.4 28.1-0.3 56.2-10.8 78-31.6zm-49.1-116.4c-28.9 1.1-55.1 13-74.7 31.7-0.2 21.4-5.9 42.7-17 61.7 18.4-10.9 39.1-16.5 59.9-17 19.1-20 31-46.8 31.8-76.4zm-113.1-45.6c-20.3 21.4-30.8 48.9-31.4 76.5 13.4 14.7 23.4 32.6 28.5 52.4 5.6-21.3 16.6-40.4 31.6-55.6-0.6-26.3-10.2-52.4-28.7-73.3zm-116.2 45.7c0.8 31.1 14 59.2 34.8 79.4 19.9 0.9 39.7 6.5 57.3 16.9-11.1-19-16.8-40.4-17-61.7-19.3-19.9-45.7-32.8-75.1-34.6zm-9.7-0.1c-28.7 0.6-54.8 11.9-74.6 29.9-0.1 28.8 10.5 57.6 31.9 79.8 21.3-18.5 47.4-28.5 73.9-30.1-18.8-21.3-30.5-49.2-31.2-79.6zm-42.8 123.1c-20.7 20.9-31.6 47.9-32.9 75.2 20 18.7 46.6 30.4 76 31 2-28.8 13.8-54.8 32-74.9-27.1-1.7-53.7-12.1-75.1-31.3zm168.7 155.2c19.1-22.4 28.3-50.3 27.5-78-14.4-15.1-25-33.7-30.4-54.4-5 19.2-14.5 36.7-27.3 51.1-0.9 29.1 9.2 58.4 30.2 81.3zm122.5-49.1c29.8-1.3 56.7-14 76.4-33.9-1.2-25.9-11.1-51.6-29.8-72-21.5 20.5-48.5 31.8-76.2 34 16.8 19.6 27.6 44.5 29.6 71.9zm41.8-276.9c-19.3-19.3-43.7-30.2-68.9-32.9 15.8 19.6 25.8 44.2 27.2 70.9 28.2 1.2 54 11.8 74.3 28.7-3-24.4-13.9-48-32.6-66.7zm-236.4-45.5c26.3 2.9 51.9 14.2 72.4 33.9 20.6-18.5 46-28.9 72-31.2-20-16.8-45.8-27-73.9-27-26.6 0-51.1 9.1-70.5 24.3zm-127.6 109.8c20.5-16 46.1-25.8 73.9-26.3 1.6-28.2 12.6-54 29.9-74.1-25.9 2.2-51.3 13.2-71.1 33-18.9 18.9-29.7 42.7-32.7 67.4zm-10.8 172.3c3.1-26.5 14.7-52.1 34.8-72.5-20.7-21.7-32.1-49-34.1-76.9-17.5 20.1-28.2 46.4-28.2 75.1 0 28.3 10.4 54.3 27.5 74.3zm42.3 95.8c19.9 19.9 45.3 30.9 71.3 33.1-17.9-21.4-28.8-48.9-29-78.9-28.6-0.6-54.8-10.9-75.6-27.7 1.8 26.8 12.9 53.1 33.3 73.5zm166.6 68c28.8 0 55.1-10.7 75.3-28.3-26.6-2.2-52.5-13-73.5-32.2-20.7 20.4-46.8 32.1-73.8 35 19.7 15.9 44.8 25.5 72 25.5zm200.3-144c-20.5 17.8-47 29-75.9 30.2-0.2 28.5-10.1 54.8-26.5 75.7 25.3-2.6 49.9-13.5 69.2-32.9 20.3-20.3 31.4-46.4 33.2-73z"/>
				<g id="&lt;Group&gt;">
					<path id="&lt;Path&gt;" class="s3" d="m310.3 283.8c0 14.6-11.8 26.5-26.5 26.5-14.6 0-26.4-11.9-26.4-26.5 0-14.6 11.8-26.5 26.4-26.5 14.7 0 26.5 11.9 26.5 26.5z"/>
					<path id="&lt;Path&gt;" class="s4" d="m299.2 283.8c0 8.5-6.9 15.4-15.4 15.4-8.5 0-15.3-6.9-15.3-15.4 0-8.5 6.8-15.4 15.3-15.4 8.5 0 15.4 6.9 15.4 15.4z"/>
				</g>
			</g>
			<g id="&lt;Group&gt;">
				<text id="HOLISTIC logo
" style="transform: matrix(2,0,0,2,35.652,637.957)" >
					<tspan x="0" y="0" class="t5" dx="0 3 3 3 3 3 3 3 3 3 3 3 3 3" >HOLISTIC LOGO
</tspan>
				</text>
				<text id="your slogan here
" style="transform: matrix(2,0,0,2,35.872,683.539)" >
					<tspan x="0" y="0" class="t6" dx="0 5 5 5 5 5 5 5 5 5 5 5 5 5 5 5 5" >YOUR SLOGAN HERE
</tspan>
				</text>
			</g>
		</g>
	</g>
</svg>